<?xml version="1.0" encoding="utf-8"?>
<svg xmlns="http://www.w3.org/2000/svg" viewBox="126.096 37.975 27.8179 30.3" width="27.8179px" height="30.3px">
  <path d="M 145.971 68.125 Q 145.671 68.275 145.296 68.275 Q 144.096 68.275 143.121 66.513 Q 142.146 64.75 142.146 61.75 L 142.146 48.025 Q 142.146 43.525 141.058 41.463 Q 139.971 39.4 137.796 39.4 Q 135.246 39.4 134.046 41.125 Q 132.846 42.85 132.471 45.1 Q 132.096 48.55 129.246 48.55 Q 127.821 48.55 127.108 47.875 Q 126.396 47.2 126.396 46.15 Q 126.396 44.2 128.796 42.288 Q 131.196 40.375 134.608 39.175 Q 138.021 37.975 140.646 37.975 Q 143.796 37.975 145.521 40 Q 147.246 42.025 147.246 45.775 L 147.246 59.575 Q 147.246 64.45 150.096 64.45 Q 151.521 64.45 153.396 63.625 L 153.471 63.625 Q 153.771 63.625 153.883 63.963 Q 153.996 64.3 153.696 64.45 L 145.971 68.125 Z M 132.171 68.2 Q 129.246 68.2 127.671 66.738 Q 126.096 65.275 126.096 62.95 Q 126.096 60.4 128.046 58.9 Q 129.996 57.4 134.346 55.75 L 142.896 52.6 L 143.121 53.575 L 136.296 56.35 Q 134.346 57.1 133.221 58.188 Q 132.096 59.275 132.096 60.925 Q 132.096 62.725 133.258 63.888 Q 134.421 65.05 136.221 65.05 Q 137.646 65.05 139.446 64 L 143.871 61.225 L 144.021 62.275 L 138.546 65.875 Q 136.821 67.15 135.321 67.675 Q 133.821 68.2 132.171 68.2 Z" style="fill: rgb(51, 51, 51); text-wrap-mode: nowrap;" transform="matrix(0.9999999999999999, 0, 0, 0.9999999999999999, 0, 0)"/>
</svg>