<?xml version="1.0" encoding="utf-8"?>
<svg xmlns="http://www.w3.org/2000/svg" viewBox="346.219 38.05 25.4916 30.525" width="25.4916px" height="30.525px">
  <path d="M 360.394 68.575 Q 355.969 68.575 352.744 66.588 Q 349.519 64.6 347.869 61.263 Q 346.219 57.925 346.219 54.1 Q 346.219 49.675 348.356 46 Q 350.494 42.325 354.169 40.188 Q 357.844 38.05 362.344 38.05 Q 366.769 38.05 369.094 40.263 Q 371.419 42.475 371.419 46.6 Q 371.419 48.7 370.519 48.7 L 365.344 48.7 Q 365.644 44.275 364.181 41.913 Q 362.719 39.55 359.794 39.55 Q 356.119 39.55 354.056 42.663 Q 351.994 45.775 351.994 51.175 Q 351.994 57.775 355.031 61.675 Q 358.069 65.575 363.694 65.575 Q 365.869 65.575 367.444 65.013 Q 369.019 64.45 371.119 63.25 L 371.194 63.25 Q 371.419 63.25 371.606 63.513 Q 371.794 63.775 371.644 64 Q 368.944 66.4 366.244 67.488 Q 363.544 68.575 360.394 68.575 Z M 350.194 47.65 L 366.994 47.35 L 366.994 48.7 L 350.269 48.775 Z" style="fill: rgb(51, 51, 51); text-wrap-mode: nowrap;" transform="matrix(0.9999999999999999, 0, 0, 0.9999999999999999, 0, 0)"/>
</svg>