<?xml version="1.0" encoding="utf-8"?>
<svg xmlns="http://www.w3.org/2000/svg" viewBox="304.745 38.05 30.375 50.7" width="30.375px" height="50.7px">
  <path d="M 315.995 88.75 Q 310.82 88.75 307.782 86.425 Q 304.745 84.1 304.745 80.425 Q 304.745 73.975 315.395 67.825 L 316.22 68.725 Q 313.07 70.375 311.42 72.325 Q 309.77 74.275 309.77 77.425 Q 309.77 81.625 312.432 84.025 Q 315.095 86.425 319.595 86.425 Q 324.32 86.425 327.282 83.8 Q 330.245 81.175 330.245 76.75 Q 330.245 73.675 328.82 72.25 Q 327.395 70.825 325.032 70.45 Q 322.67 70.075 318.47 70.075 Q 312.695 70 309.695 68.988 Q 306.695 67.975 306.695 64.525 Q 306.695 62.05 308.345 59.95 Q 309.995 57.85 313.37 55.6 L 314.195 56.2 Q 312.47 57.475 311.72 58.638 Q 310.97 59.8 310.97 61.3 Q 310.97 63.85 313.257 64.675 Q 315.545 65.5 321.395 65.5 Q 325.52 65.575 328.107 65.95 Q 330.695 66.325 332.72 68.013 Q 334.745 69.7 334.745 73.3 Q 334.745 77.425 332.12 80.988 Q 329.495 84.55 325.182 86.65 Q 320.87 88.75 315.995 88.75 Z M 317.945 57.7 Q 314.42 57.7 311.795 56.35 Q 309.17 55 307.782 52.713 Q 306.395 50.425 306.395 47.8 Q 306.395 43.525 309.957 40.863 Q 313.52 38.2 318.77 38.2 Q 322.37 38.2 324.957 39.55 Q 327.545 40.9 328.857 43.075 Q 330.17 45.25 330.17 47.725 Q 330.17 50.5 328.557 52.75 Q 326.945 55 324.132 56.35 Q 321.32 57.7 317.945 57.7 Z M 319.52 56.5 Q 321.77 56.5 323.195 54.775 Q 324.62 53.05 324.62 49.525 Q 324.62 44.875 322.295 42.138 Q 319.97 39.4 316.745 39.4 Q 314.42 39.4 313.145 41.013 Q 311.87 42.625 311.87 45.925 Q 311.87 49.15 312.995 51.55 Q 314.12 53.95 315.882 55.225 Q 317.645 56.5 319.52 56.5 Z M 325.145 41.5 Q 327.77 39.775 329.945 38.913 Q 332.12 38.05 334.67 38.05 Q 334.895 38.05 335.007 38.613 Q 335.12 39.175 335.12 39.85 Q 335.12 40.825 334.895 41.838 Q 334.67 42.85 334.37 42.7 Q 331.595 41.5 329.195 41.5 Q 327.62 41.5 325.67 42.1 L 325.07 43.975 L 325.145 41.5 Z" style="fill: rgb(51, 51, 51); text-wrap-mode: nowrap;" transform="matrix(0.9999999999999999, 0, 0, 0.9999999999999999, 0, 0)"/>
</svg>