<?xml version="1.0" encoding="utf-8"?>
<svg xmlns="http://www.w3.org/2000/svg" viewBox="109.998 22.6 16.025 45.075" width="16.025px" height="45.075px">
  <path d="M 111.698 67.675 Q 111.473 67.675 111.473 67.225 Q 111.473 66.775 111.698 66.775 Q 114.473 66.775 115.336 65.763 Q 116.198 64.75 116.198 61.6 L 116.198 47.725 Q 116.198 45.1 115.673 43.938 Q 115.148 42.775 113.798 42.775 Q 112.598 42.775 110.573 43.75 L 110.498 43.75 Q 110.198 43.75 110.048 43.338 Q 109.898 42.925 110.198 42.85 L 120.398 38.125 L 120.698 38.05 Q 120.923 38.05 121.186 38.275 Q 121.448 38.5 121.448 38.8 Q 121.448 39.325 121.373 41.8 Q 121.298 44.275 121.298 47.65 L 121.298 61.6 Q 121.298 64.75 122.161 65.763 Q 123.023 66.775 125.798 66.775 Q 126.023 66.775 126.023 67.225 Q 126.023 67.675 125.798 67.675 Q 123.998 67.675 122.873 67.6 L 118.748 67.525 L 114.623 67.6 Q 113.498 67.675 111.698 67.675 Z M 118.298 29.65 Q 116.573 29.65 115.561 28.713 Q 114.548 27.775 114.548 26.05 Q 114.548 24.4 115.561 23.5 Q 116.573 22.6 118.298 22.6 Q 119.948 22.6 120.886 23.5 Q 121.823 24.4 121.823 26.05 Q 121.823 27.775 120.923 28.713 Q 120.023 29.65 118.298 29.65 Z" style="fill: rgb(51, 51, 51); text-wrap-mode: nowrap;" transform="matrix(0.9999999999999999, 0, 0, 0.9999999999999999, 0, 0)"/>
</svg>