<?xml version="1.0" encoding="utf-8"?>
<svg xmlns="http://www.w3.org/2000/svg" viewBox="331.2606 13.3 16.1595 54.375" width="16.1595px" height="54.375px">
  <path d="M 332.87 67.675 Q 332.72 67.675 332.72 67.225 Q 332.72 66.775 332.87 66.775 Q 335.645 66.775 336.508 65.763 Q 337.37 64.75 337.37 61.6 L 337.445 23.05 Q 337.445 20.35 336.92 19.188 Q 336.395 18.025 335.12 18.025 Q 333.845 18.025 331.895 19 L 331.82 19 Q 331.52 19 331.333 18.588 Q 331.145 18.175 331.445 18.1 L 341.495 13.375 L 341.795 13.3 Q 342.02 13.3 342.358 13.525 Q 342.695 13.75 342.695 14.05 L 342.695 61.6 Q 342.695 64.75 343.558 65.763 Q 344.42 66.775 347.12 66.775 Q 347.42 66.775 347.42 67.225 Q 347.42 67.675 347.12 67.675 Q 345.395 67.675 344.345 67.6 L 339.995 67.525 L 335.795 67.6 Q 334.745 67.675 332.87 67.675 Z" style="fill: rgb(51, 51, 51); text-wrap-mode: nowrap;" transform="matrix(0.9999999999999999, 0, 0, 0.9999999999999999, 0, 0)"/>
</svg>