<?xml version="1.0" encoding="utf-8"?>
<svg xmlns="http://www.w3.org/2000/svg" viewBox="148.4462 37.75 37.0498 29.925" width="37.0498px" height="29.925px">
  <path d="M 171.171 67.675 Q 170.946 67.675 170.946 67.225 Q 170.946 66.775 171.171 66.775 Q 173.046 66.775 173.984 66.363 Q 174.921 65.95 175.259 64.863 Q 175.596 63.775 175.596 61.6 L 175.596 49.825 Q 175.596 45.475 174.021 43.45 Q 172.446 41.425 168.996 41.425 Q 166.371 41.425 163.709 43 Q 161.046 44.575 159.171 47.2 L 158.871 46.3 Q 165.171 37.75 172.071 37.75 Q 176.196 37.75 178.484 40.188 Q 180.771 42.625 180.771 46.975 L 180.771 61.6 Q 180.771 63.775 181.109 64.863 Q 181.446 65.95 182.384 66.363 Q 183.321 66.775 185.271 66.775 Q 185.496 66.775 185.496 67.225 Q 185.496 67.675 185.271 67.675 Q 183.471 67.675 182.346 67.6 L 178.221 67.525 L 174.096 67.6 Q 172.971 67.675 171.171 67.675 Z M 150.996 67.675 Q 150.771 67.675 150.771 67.225 Q 150.771 66.775 150.996 66.775 Q 152.871 66.775 153.809 66.363 Q 154.746 65.95 155.084 64.863 Q 155.421 63.775 155.421 61.6 L 155.421 46.975 Q 155.421 44.5 154.859 43.413 Q 154.296 42.325 152.946 42.325 Q 151.671 42.325 148.971 43.375 L 148.821 43.375 Q 148.596 43.375 148.484 43 Q 148.371 42.625 148.596 42.55 L 157.821 38.125 L 158.271 38.05 Q 159.021 38.05 159.809 39.813 Q 160.596 41.575 160.596 44.425 L 160.596 61.6 Q 160.596 63.775 160.934 64.863 Q 161.271 65.95 162.209 66.363 Q 163.146 66.775 165.096 66.775 Q 165.321 66.775 165.321 67.225 Q 165.321 67.675 165.096 67.675 Q 163.296 67.675 162.171 67.6 L 158.046 67.525 L 153.846 67.6 Q 152.796 67.675 150.996 67.675 Z" style="fill: rgb(51, 51, 51); text-wrap-mode: nowrap;" transform="matrix(0.9999999999999999, 0, 0, 0.9999999999999999, 0, 0)"/>
</svg>