<?xml version="1.0" encoding="utf-8"?>
<svg xmlns="http://www.w3.org/2000/svg" viewBox="211.4102 37.75 35.8848 50.55" width="35.8848px" height="50.55px">
  <path d="M 213.92 88.3 Q 213.695 88.3 213.695 87.85 Q 213.695 87.4 213.92 87.4 Q 215.87 87.4 216.845 86.988 Q 217.82 86.575 218.157 85.525 Q 218.495 84.475 218.495 82.225 L 218.495 47.125 Q 218.495 44.575 217.895 43.413 Q 217.295 42.25 215.87 42.25 Q 214.445 42.25 212.045 43.375 L 211.97 43.375 Q 211.67 43.375 211.482 43 Q 211.295 42.625 211.595 42.55 L 220.595 38.2 Q 220.895 38.05 221.12 38.05 Q 222.17 38.05 222.882 39.85 Q 223.595 41.65 223.595 44.875 L 223.595 82.225 Q 223.595 84.475 224.12 85.525 Q 224.645 86.575 226.145 86.988 Q 227.645 87.4 230.795 87.4 Q 231.02 87.4 231.02 87.85 Q 231.02 88.3 230.795 88.3 Q 228.17 88.3 226.67 88.225 L 221.045 88.15 L 216.845 88.225 Q 215.795 88.3 213.92 88.3 Z M 231.02 68.65 Q 228.17 68.65 226.032 68.013 Q 223.895 67.375 221.12 65.8 L 222.695 61.525 Q 224.87 64.225 227.195 65.613 Q 229.52 67 233.045 67 Q 236.945 67 239.307 63.588 Q 241.67 60.175 241.67 53.875 Q 241.67 47.725 238.932 44.35 Q 236.195 40.975 231.995 40.975 Q 229.145 40.975 226.82 42.475 Q 224.495 43.975 221.87 46.9 L 221.195 46.225 Q 224.945 41.8 228.47 39.775 Q 231.995 37.75 235.67 37.75 Q 238.82 37.75 241.482 39.4 Q 244.145 41.05 245.72 44.2 Q 247.295 47.35 247.295 51.55 Q 247.295 57.325 244.782 61.188 Q 242.27 65.05 238.52 66.85 Q 234.77 68.65 231.02 68.65 Z" style="fill: rgb(51, 51, 51); text-wrap-mode: nowrap;" transform="matrix(0.9999999999999999, 0, 0, 0.9999999999999999, 0, 0)"/>
</svg>