<?xml version="1.0" encoding="utf-8"?>
<svg xmlns="http://www.w3.org/2000/svg" viewBox="369.0928 38.05 25.2752 29.625" width="25.2752px" height="29.625px">
  <path d="M 379.143 46.525 Q 383.193 41.65 385.48 39.85 Q 387.768 38.05 389.643 38.05 Q 391.368 38.05 392.868 39.063 Q 394.368 40.075 394.368 41.5 Q 394.368 42.625 393.618 43.413 Q 392.868 44.2 391.593 44.2 Q 390.768 44.2 390.243 43.863 Q 389.718 43.525 388.893 42.85 Q 388.143 42.175 387.655 41.875 Q 387.168 41.575 386.343 41.575 Q 385.293 41.575 383.98 42.663 Q 382.668 43.75 379.593 47.35 L 379.143 46.525 Z M 371.643 67.675 Q 371.418 67.675 371.418 67.225 Q 371.418 66.775 371.643 66.775 Q 373.518 66.775 374.455 66.363 Q 375.393 65.95 375.73 64.863 Q 376.068 63.775 376.068 61.6 L 376.068 46.975 Q 376.068 44.5 375.505 43.413 Q 374.943 42.325 373.593 42.325 Q 372.318 42.325 369.618 43.375 L 369.468 43.375 Q 369.243 43.375 369.13 43 Q 369.018 42.625 369.243 42.55 L 378.468 38.125 L 378.918 38.05 Q 379.668 38.05 380.455 39.813 Q 381.243 41.575 381.243 44.425 L 381.243 61.6 Q 381.243 63.775 381.805 64.863 Q 382.368 65.95 383.868 66.363 Q 385.368 66.775 388.368 66.775 Q 388.593 66.775 388.593 67.225 Q 388.593 67.675 388.368 67.675 Q 385.893 67.675 384.393 67.6 L 378.693 67.525 L 374.493 67.6 Q 373.443 67.675 371.643 67.675 Z" style="fill: rgb(51, 51, 51); text-wrap-mode: nowrap;" transform="matrix(0.9999999999999999, 0, 0, 0.9999999999999999, 0, 0)"/>
</svg>