<?xml version="1.0" encoding="utf-8"?>
<svg xmlns="http://www.w3.org/2000/svg" viewBox="195.772 37.825 18.75 30.675" width="18.75px" height="30.675px">
  <path d="M 200.272 43 Q 200.272 45.475 201.922 47.05 Q 203.572 48.625 206.797 50.35 Q 209.422 51.7 210.922 52.713 Q 212.422 53.725 213.472 55.3 Q 214.522 56.875 214.522 59.2 Q 214.522 63.025 211.634 65.763 Q 208.747 68.5 203.722 68.5 Q 199.822 68.5 196.372 66.325 Q 195.922 65.875 195.922 65.425 L 195.772 59.125 Q 195.772 58.9 196.184 58.863 Q 196.597 58.825 196.672 58.975 Q 198.022 62.725 200.459 64.9 Q 202.897 67.075 205.897 67.075 Q 207.997 67.075 209.159 66.025 Q 210.322 64.975 210.322 62.95 Q 210.322 60.85 209.422 59.388 Q 208.522 57.925 207.209 57.063 Q 205.897 56.2 203.647 55 Q 201.097 53.725 199.672 52.75 Q 198.247 51.775 197.234 50.2 Q 196.222 48.625 196.222 46.3 Q 196.222 42.1 199.297 39.963 Q 202.372 37.825 206.647 37.825 Q 209.572 37.825 212.347 38.95 Q 213.022 39.175 213.022 39.775 Q 213.022 41.425 212.947 42.325 L 212.872 45.625 Q 212.872 45.85 212.422 45.85 Q 211.972 45.85 211.972 45.625 Q 211.972 44.125 210.772 42.625 Q 209.572 41.125 207.734 40.225 Q 205.897 39.325 204.022 39.325 Q 202.297 39.325 201.284 40.188 Q 200.272 41.05 200.272 43 Z" style="fill: rgb(51, 51, 51); text-wrap-mode: nowrap;" transform="matrix(0.9999999999999999, 0, 0, 0.9999999999999999, 0, 0)"/>
</svg>