<?xml version="1.0" encoding="utf-8"?>
<svg xmlns="http://www.w3.org/2000/svg" viewBox="104.078 11.663 206.672 83.583" xmlns:bx="https://boxy-svg.com" width="206.672px" height="83.583px"><path d="M 109.698 66.675 C 109.548 66.675 109.473 66.525 109.473 66.225 C 109.473 65.925 109.548 65.775 109.698 65.775 C 111.548 65.775 112.761 65.438 113.336 64.763 C 113.911 64.088 114.198 62.7 114.198 60.6 L 114.198 46.725 C 114.198 44.975 114.023 43.713 113.673 42.938 C 113.323 42.163 112.698 41.775 111.798 41.775 C 110.998 41.775 109.923 42.1 108.573 42.75 L 108.498 42.75 C 108.298 42.75 108.148 42.613 108.048 42.338 C 107.948 42.063 107.998 41.9 108.198 41.85 L 118.398 37.125 L 118.698 37.05 C 118.848 37.05 119.011 37.125 119.186 37.275 C 119.361 37.425 119.448 37.6 119.448 37.8 C 119.448 38.15 119.423 39.15 119.373 40.8 C 119.323 42.45 119.298 44.4 119.298 46.65 L 119.298 60.6 C 119.298 62.7 119.586 64.088 120.161 64.763 C 120.736 65.438 121.948 65.775 123.798 65.775 C 123.948 65.775 124.023 65.925 124.023 66.225 C 124.023 66.525 123.948 66.675 123.798 66.675 C 122.598 66.675 121.623 66.65 120.873 66.6 L 116.748 66.525 L 112.623 66.6 C 111.873 66.65 110.898 66.675 109.698 66.675 Z M 116.298 28.65 C 115.148 28.65 114.236 28.338 113.561 27.713 C 112.886 27.088 112.548 26.2 112.548 25.05 C 112.548 23.95 112.886 23.1 113.561 22.5 C 114.236 21.9 115.148 21.6 116.298 21.6 C 117.398 21.6 118.261 21.9 118.886 22.5 C 119.511 23.1 119.823 23.95 119.823 25.05 C 119.823 26.2 119.523 27.088 118.923 27.713 C 118.323 28.338 117.448 28.65 116.298 28.65 Z" style="fill: rgb(51, 51, 51); text-wrap-mode: nowrap;"/><path d="M 138.246 58.575 C 138.246 61.825 134.771 66.688 134.121 65.513 C 133.471 64.338 133.146 62.75 133.146 60.75 L 133.146 47.025 C 133.146 44.025 132.783 41.838 132.058 40.463 C 131.333 39.088 130.246 38.4 128.796 38.4 C 127.096 38.4 125.846 38.975 125.046 40.125 C 124.246 41.275 123.721 42.6 123.471 44.1 C 123.221 46.4 122.146 47.55 120.246 47.55 C 119.296 47.55 118.583 47.325 118.108 46.875 C 117.633 46.425 117.396 45.85 117.396 45.15 C 117.396 43.85 118.196 42.563 119.796 41.288 C 121.396 40.013 123.333 38.975 125.608 38.175 C 127.883 37.375 129.896 36.975 131.646 36.975 C 133.746 36.975 135.371 37.65 136.521 39 C 137.671 40.35 138.246 42.275 138.246 44.775 L 138.246 58.575 Z M 123.171 67.2 C 121.221 67.2 119.721 66.713 118.671 65.738 C 117.621 64.763 117.096 63.5 117.096 61.95 C 117.096 60.25 117.746 58.9 119.046 57.9 C 120.346 56.9 122.446 55.85 125.346 54.75 L 133.896 51.6 L 134.121 52.575 L 127.296 55.35 C 125.996 55.85 124.971 56.463 124.221 57.188 C 123.471 57.913 123.096 58.825 123.096 59.925 C 123.096 61.125 123.483 62.113 124.258 62.888 C 125.033 63.663 126.021 64.05 127.221 64.05 C 128.171 64.05 129.246 63.7 130.446 63 L 134.871 60.225 L 135.021 61.275 L 129.546 64.875 C 128.396 65.725 127.321 66.325 126.321 66.675 C 125.321 67.025 124.271 67.2 123.171 67.2 Z" style="fill: rgb(51, 51, 51); text-wrap-mode: nowrap;"/><path d="M 151.171 66.675 C 151.021 66.675 150.946 66.525 150.946 66.225 C 150.946 65.925 151.021 65.775 151.171 65.775 C 152.421 65.775 153.359 65.638 153.984 65.363 C 154.609 65.088 155.034 64.588 155.259 63.863 C 155.484 63.138 155.596 62.05 155.596 60.6 L 155.596 48.825 C 155.596 45.925 155.071 43.8 154.021 42.45 C 152.971 41.1 151.296 40.425 148.996 40.425 C 147.246 40.425 145.484 40.95 143.709 42 C 141.934 43.05 140.421 44.45 139.171 46.2 L 138.871 45.3 C 143.071 39.6 147.471 36.75 152.071 36.75 C 154.821 36.75 156.959 37.563 158.484 39.188 C 160.009 40.813 160.771 43.075 160.771 45.975 L 160.771 60.6 C 160.771 62.05 160.884 63.138 161.109 63.863 C 161.334 64.588 161.759 65.088 162.384 65.363 C 163.009 65.638 163.971 65.775 165.271 65.775 C 165.421 65.775 165.496 65.925 165.496 66.225 C 165.496 66.525 165.421 66.675 165.271 66.675 C 164.071 66.675 163.096 66.65 162.346 66.6 L 158.221 66.525 L 154.096 66.6 C 153.346 66.65 152.371 66.675 151.171 66.675 Z M 130.996 66.675 C 130.846 66.675 130.771 66.525 130.771 66.225 C 130.771 65.925 130.846 65.775 130.996 65.775 C 132.246 65.775 133.184 65.638 133.809 65.363 C 134.434 65.088 134.859 64.588 135.084 63.863 C 135.309 63.138 135.421 62.05 135.421 60.6 L 135.421 45.975 C 135.421 44.325 135.234 43.138 134.859 42.413 C 134.484 41.688 133.846 41.325 132.946 41.325 C 132.096 41.325 130.771 41.675 128.971 42.375 L 128.821 42.375 C 128.671 42.375 128.559 42.25 128.484 42 C 128.409 41.75 128.446 41.6 128.596 41.55 L 137.821 37.125 L 138.271 37.05 C 138.771 37.05 139.284 37.638 139.809 38.813 C 140.334 39.988 140.596 41.525 140.596 43.425 L 140.596 60.6 C 140.596 62.05 140.709 63.138 140.934 63.863 C 141.159 64.588 141.584 65.088 142.209 65.363 C 142.834 65.638 143.796 65.775 145.096 65.775 C 145.246 65.775 145.321 65.925 145.321 66.225 C 145.321 66.525 145.246 66.675 145.096 66.675 C 143.896 66.675 142.921 66.65 142.171 66.6 L 138.046 66.525 L 133.846 66.6 C 133.146 66.65 132.196 66.675 130.996 66.675 Z" style="fill: rgb(51, 51, 51); text-wrap-mode: nowrap;"/><path d="M 176.272 43 C 176.272 44.65 176.822 46 177.922 47.05 C 179.022 48.1 180.647 49.2 182.797 50.35 C 184.547 51.25 185.922 52.038 186.922 52.713 C 187.922 53.388 188.772 54.25 189.472 55.3 C 190.172 56.35 190.522 57.65 190.522 59.2 C 190.522 61.75 189.559 63.938 187.634 65.763 C 185.709 67.588 183.072 68.5 179.722 68.5 C 177.122 68.5 174.672 67.775 172.372 66.325 C 172.072 66.025 171.922 65.725 171.922 65.425 L 171.772 59.125 C 171.772 58.975 171.909 58.888 172.184 58.863 C 172.459 58.838 172.622 58.875 172.672 58.975 C 173.572 61.475 174.834 63.45 176.459 64.9 C 178.084 66.35 179.897 67.075 181.897 67.075 C 183.297 67.075 184.384 66.725 185.159 66.025 C 185.934 65.325 186.322 64.3 186.322 62.95 C 186.322 61.55 186.022 60.363 185.422 59.388 C 184.822 58.413 184.084 57.638 183.209 57.063 C 182.334 56.488 181.147 55.8 179.647 55 C 177.947 54.15 176.622 53.4 175.672 52.75 C 174.722 52.1 173.909 51.25 173.234 50.2 C 172.559 49.15 172.222 47.85 172.222 46.3 C 172.222 43.5 173.247 41.388 175.297 39.963 C 177.347 38.538 179.797 37.825 182.647 37.825 C 184.597 37.825 186.497 38.2 188.347 38.95 C 188.797 39.1 189.022 39.375 189.022 39.775 C 189.022 40.875 188.997 41.725 188.947 42.325 L 188.872 45.625 C 188.872 45.775 188.722 45.85 188.422 45.85 C 188.122 45.85 187.972 45.775 187.972 45.625 C 187.972 44.625 187.572 43.625 186.772 42.625 C 185.972 41.625 184.959 40.825 183.734 40.225 C 182.509 39.625 181.272 39.325 180.022 39.325 C 178.872 39.325 177.959 39.613 177.284 40.188 C 176.609 40.763 176.272 41.7 176.272 43 Z" style="fill: rgb(51, 51, 51); text-wrap-mode: nowrap;"/><path d="M 180.92 87.3 C 180.77 87.3 180.695 87.15 180.695 86.85 C 180.695 86.55 180.77 86.4 180.92 86.4 C 182.22 86.4 183.195 86.263 183.845 85.988 C 184.495 85.713 184.932 85.225 185.157 84.525 C 185.382 83.825 185.495 82.725 185.495 81.225 L 185.495 46.125 C 185.495 44.425 185.295 43.188 184.895 42.413 C 184.495 41.638 183.82 41.25 182.87 41.25 C 181.92 41.25 180.645 41.625 179.045 42.375 L 178.97 42.375 C 178.77 42.375 178.607 42.25 178.482 42 C 178.357 41.75 178.395 41.6 178.595 41.55 L 187.595 37.2 C 187.795 37.1 187.97 37.05 188.12 37.05 C 188.82 37.05 189.407 37.65 189.882 38.85 C 190.357 40.05 190.595 41.725 190.595 43.875 L 190.595 81.225 C 190.595 82.725 190.77 83.825 191.12 84.525 C 191.47 85.225 192.145 85.713 193.145 85.988 C 194.145 86.263 195.695 86.4 197.795 86.4 C 197.945 86.4 198.02 86.55 198.02 86.85 C 198.02 87.15 197.945 87.3 197.795 87.3 C 196.045 87.3 194.67 87.275 193.67 87.225 L 188.045 87.15 L 183.845 87.225 C 183.145 87.275 182.17 87.3 180.92 87.3 Z M 198.02 67.65 C 196.12 67.65 194.457 67.438 193.032 67.013 C 191.607 66.588 189.97 65.85 188.12 64.8 L 189.695 60.525 C 191.145 62.325 192.645 63.688 194.195 64.613 C 195.745 65.538 197.695 66 200.045 66 C 202.645 66 204.732 64.863 206.307 62.588 C 207.882 60.313 208.67 57.075 208.67 52.875 C 208.67 48.775 207.757 45.6 205.932 43.35 C 204.107 41.1 201.795 39.975 198.995 39.975 C 197.095 39.975 195.37 40.475 193.82 41.475 C 192.27 42.475 190.62 43.95 188.87 45.9 L 188.195 45.225 C 190.695 42.275 193.12 40.125 195.47 38.775 C 197.82 37.425 200.22 36.75 202.67 36.75 C 204.77 36.75 206.707 37.3 208.482 38.4 C 210.257 39.5 211.67 41.1 212.72 43.2 C 213.77 45.3 214.295 47.75 214.295 50.55 C 214.295 54.4 213.457 57.613 211.782 60.188 C 210.107 62.763 208.02 64.65 205.52 65.85 C 203.02 67.05 200.52 67.65 198.02 67.65 Z" style="fill: rgb(51, 51, 51); text-wrap-mode: nowrap;"/><path d="M 228.695 68.125 C 228.495 68.225 228.27 68.275 228.02 68.275 C 227.22 68.275 226.495 67.688 225.845 66.513 C 225.195 65.338 224.87 63.75 224.87 61.75 L 224.87 48.025 C 224.87 45.025 224.507 42.838 223.782 41.463 C 223.057 40.088 221.97 39.4 220.52 39.4 C 218.82 39.4 217.57 39.975 216.77 41.125 C 215.97 42.275 215.445 43.6 215.195 45.1 C 214.945 47.4 213.87 48.55 211.97 48.55 C 211.02 48.55 210.307 48.325 209.832 47.875 C 209.357 47.425 209.12 46.85 209.12 46.15 C 209.12 44.85 209.92 43.563 211.52 42.288 C 213.12 41.013 215.057 39.975 217.332 39.175 C 219.607 38.375 221.62 37.975 223.37 37.975 C 225.47 37.975 227.095 38.65 228.245 40 C 229.395 41.35 229.97 43.275 229.97 45.775 L 229.97 59.575 C 229.97 62.825 230.92 64.45 232.82 64.45 C 233.77 64.45 234.87 64.175 236.12 63.625 L 236.195 63.625 C 236.395 63.625 236.532 63.738 236.607 63.963 C 236.682 64.188 236.62 64.35 236.42 64.45 L 228.695 68.125 Z M 214.895 68.2 C 212.945 68.2 211.445 67.713 210.395 66.738 C 209.345 65.763 208.82 64.5 208.82 62.95 C 208.82 61.25 209.47 59.9 210.77 58.9 C 212.07 57.9 214.17 56.85 217.07 55.75 L 225.62 52.6 L 225.845 53.575 L 219.02 56.35 C 217.72 56.85 216.695 57.463 215.945 58.188 C 215.195 58.913 214.82 59.825 214.82 60.925 C 214.82 62.125 215.207 63.113 215.982 63.888 C 216.757 64.663 217.745 65.05 218.945 65.05 C 219.895 65.05 220.97 64.7 222.17 64 L 226.595 61.225 L 226.745 62.275 L 221.27 65.875 C 220.12 66.725 219.045 67.325 218.045 67.675 C 217.045 68.025 215.995 68.2 214.895 68.2 Z" style="fill: rgb(51, 51, 51); text-wrap-mode: nowrap;"/><path d="M 240.895 64.675 C 240.745 64.675 240.67 64.525 240.67 64.225 C 240.67 63.925 240.745 63.775 240.895 63.775 C 242.145 63.775 243.083 63.638 243.708 63.363 C 244.333 63.088 244.758 62.588 244.983 61.863 C 245.208 61.138 245.32 60.05 245.32 58.6 L 245.32 46.825 C 245.32 43.925 244.795 41.8 243.745 40.45 C 242.695 39.1 241.02 38.425 238.72 38.425 C 236.97 38.425 235.208 38.95 233.433 40 C 231.658 41.05 230.145 42.45 228.895 44.2 L 228.595 43.3 C 232.795 37.6 237.195 34.75 241.795 34.75 C 244.545 34.75 246.683 35.563 248.208 37.188 C 249.733 38.813 250.495 41.075 250.495 43.975 L 250.495 58.6 C 250.495 60.05 250.608 61.138 250.833 61.863 C 251.058 62.588 251.483 63.088 252.108 63.363 C 252.733 63.638 253.695 63.775 254.995 63.775 C 255.145 63.775 255.22 63.925 255.22 64.225 C 255.22 64.525 255.145 64.675 254.995 64.675 C 253.795 64.675 252.82 64.65 252.07 64.6 L 247.945 64.525 L 243.82 64.6 C 243.07 64.65 242.095 64.675 240.895 64.675 Z M 227.77 64.525 C 227.77 64.525 225.145 60.05 225.145 58.6 L 225.145 43.975 C 225.145 42.325 224.958 41.138 224.583 40.413 C 224.208 39.688 223.57 39.325 222.67 39.325 C 221.82 39.325 220.231 38.617 220.381 38.567 L 227.545 35.125 L 227.995 35.05 C 228.495 35.05 229.008 35.638 229.533 36.813 C 230.058 37.988 230.32 39.525 230.32 41.425 L 230.32 58.6 C 230.32 60.05 230.433 61.138 230.658 61.863 C 230.883 62.588 231.308 63.088 231.933 63.363 C 232.558 63.638 233.52 63.775 234.82 63.775 C 234.97 63.775 236.215 63.533 236.215 63.833 C 236.215 64.133 234.97 64.675 234.82 64.675 C 233.62 64.675 232.645 64.65 231.895 64.6 L 227.77 64.525 Z" style="fill: rgb(51, 51, 51); text-wrap-mode: nowrap;"/><path d="M 255.995 91.75 C 252.545 91.75 249.807 90.975 247.782 89.425 C 245.757 87.875 244.745 85.875 244.745 83.425 C 244.745 79.125 248.295 74.925 255.395 70.825 L 256.22 71.725 C 254.12 72.825 252.52 74.025 251.42 75.325 C 250.32 76.625 249.77 78.325 249.77 80.425 C 249.77 83.225 250.657 85.425 252.432 87.025 C 254.207 88.625 256.595 89.425 259.595 89.425 C 262.745 89.425 265.307 88.55 267.282 86.8 C 269.257 85.05 270.245 82.7 270.245 79.75 C 270.245 77.7 269.77 76.2 268.82 75.25 C 267.87 74.3 266.607 73.7 265.032 73.45 C 263.457 73.2 261.27 73.075 258.47 73.075 C 254.62 73.025 251.695 72.663 249.695 71.988 C 247.695 71.313 246.695 69.825 246.695 67.525 C 246.695 65.875 247.245 64.35 248.345 62.95 C 249.445 61.55 251.12 60.1 253.37 58.6 L 254.195 59.2 C 253.045 60.05 252.22 60.863 251.72 61.638 C 251.22 62.413 250.97 63.3 250.97 64.3 C 250.97 66 251.732 67.125 253.257 67.675 C 254.782 68.225 257.495 68.5 261.395 68.5 C 264.145 68.55 266.382 68.7 268.107 68.95 C 269.832 69.2 271.37 69.888 272.72 71.013 C 274.07 72.138 274.745 73.9 274.745 76.3 C 274.745 79.05 273.87 81.613 272.12 83.988 C 270.37 86.363 268.057 88.25 265.182 89.65 C 262.307 91.05 259.245 91.75 255.995 91.75 Z M 257.945 60.7 C 255.595 60.7 253.545 60.25 251.795 59.35 C 250.045 58.45 248.707 57.238 247.782 55.713 C 246.857 54.188 246.395 52.55 246.395 50.8 C 246.395 47.95 247.582 45.638 249.957 43.863 C 252.332 42.088 255.27 41.2 258.77 41.2 C 261.17 41.2 263.232 41.65 264.957 42.55 C 266.682 43.45 267.982 44.625 268.857 46.075 C 269.732 47.525 270.17 49.075 270.17 50.725 C 270.17 52.575 269.632 54.25 268.557 55.75 C 267.482 57.25 266.007 58.45 264.132 59.35 C 262.257 60.25 260.195 60.7 257.945 60.7 Z M 259.52 59.5 C 261.02 59.5 262.245 58.925 263.195 57.775 C 264.145 56.625 264.62 54.875 264.62 52.525 C 264.62 49.425 263.845 46.963 262.295 45.138 C 260.745 43.313 258.895 42.4 256.745 42.4 C 255.195 42.4 253.995 42.938 253.145 44.013 C 252.295 45.088 251.87 46.725 251.87 48.925 C 251.87 51.075 252.245 52.95 252.995 54.55 C 253.745 56.15 254.707 57.375 255.882 58.225 C 257.057 59.075 258.27 59.5 259.52 59.5 Z M 265.145 44.5 C 266.895 43.35 266.97 44.7 265.67 45.1 L 265.07 46.975 L 265.145 44.5 Z" style="fill: rgb(51, 51, 51); text-wrap-mode: nowrap;"/><path d="M 260.87 64.675 C 260.77 64.675 260.72 64.525 260.72 64.225 C 260.72 63.925 260.77 63.775 260.87 63.775 C 262.72 63.775 263.933 63.438 264.508 62.763 C 265.083 62.088 265.37 60.7 265.37 58.6 L 265.445 25.05 C 265.445 23.25 265.27 21.963 264.92 21.188 C 264.57 20.413 263.97 20.025 263.12 20.025 C 262.27 20.025 261.195 20.35 259.895 21 L 259.82 21 C 259.62 21 259.458 20.863 259.333 20.588 C 259.208 20.313 259.245 20.15 259.445 20.1 L 269.495 15.375 L 269.795 15.3 C 269.945 15.3 270.133 15.375 270.358 15.525 C 270.583 15.675 270.695 15.85 270.695 16.05 L 270.695 58.6 C 270.695 60.7 270.983 62.088 271.558 62.763 C 272.133 63.438 273.32 63.775 275.12 63.775 C 275.32 63.775 275.42 63.925 275.42 64.225 C 275.42 64.525 275.32 64.675 275.12 64.675 C 273.97 64.675 273.045 64.65 272.345 64.6 L 267.995 64.525 L 263.795 64.6 C 263.095 64.65 262.12 64.675 260.87 64.675 Z" style="fill: rgb(51, 51, 51); text-wrap-mode: nowrap;"/><path d="M 282.394 71.575 C 279.444 71.575 276.894 70.913 274.744 69.588 C 272.594 68.263 270.969 66.488 269.869 64.263 C 268.769 62.038 268.219 59.65 268.219 57.1 C 268.219 54.15 268.931 51.45 270.356 49 C 271.781 46.55 273.719 44.613 276.169 43.188 C 278.619 41.763 281.344 41.05 284.344 41.05 C 287.294 41.05 289.544 41.788 291.094 43.263 C 292.644 44.738 293.419 46.85 293.419 49.6 C 293.419 51 293.119 51.7 292.519 51.7 L 287.344 51.7 C 287.544 48.75 287.156 46.488 286.181 44.913 C 285.206 43.338 283.744 42.55 281.794 42.55 C 279.344 42.55 277.431 43.588 276.056 45.663 C 274.681 47.738 273.994 50.575 273.994 54.175 C 273.994 58.575 275.006 62.075 277.031 64.675 C 279.056 67.275 281.944 68.575 285.694 68.575 C 287.144 68.575 288.394 68.388 289.444 68.013 C 290.494 67.638 291.719 67.05 293.119 66.25 L 293.194 66.25 C 293.344 66.25 293.617 66.14 293.742 66.315 C 293.867 66.49 294.484 65.915 294.051 66.397 C 292.251 67.997 290.044 69.763 288.244 70.488 C 286.444 71.213 284.494 71.575 282.394 71.575 Z M 272.194 50.65 L 288.994 50.35 L 288.994 51.7 L 272.269 51.775 L 272.194 50.65 Z" style="fill: rgb(51, 51, 51); text-wrap-mode: nowrap;"/><path d="M 291.143 45.525 C 293.843 42.275 295.955 40.05 297.48 38.85 C 299.005 37.65 300.393 37.05 301.643 37.05 C 302.793 37.05 303.868 37.388 304.868 38.063 C 305.868 38.738 306.368 39.55 306.368 40.5 C 306.368 41.25 306.118 41.888 305.618 42.413 C 305.118 42.938 304.443 43.2 303.593 43.2 C 303.043 43.2 302.593 43.088 302.243 42.863 C 301.893 42.638 301.443 42.3 300.893 41.85 C 300.393 41.4 299.98 41.075 299.655 40.875 C 299.33 40.675 298.893 40.575 298.343 40.575 C 297.643 40.575 296.855 40.938 295.98 41.663 C 295.105 42.388 293.643 43.95 291.593 46.35 L 291.143 45.525 Z M 283.643 66.675 C 283.493 66.675 283.418 66.525 283.418 66.225 C 283.418 65.925 283.493 65.775 283.643 65.775 C 284.893 65.775 285.83 65.638 286.455 65.363 C 287.08 65.088 287.505 64.588 287.73 63.863 C 287.955 63.138 288.068 62.05 288.068 60.6 L 288.068 45.975 C 288.068 44.325 287.88 43.138 287.505 42.413 C 287.13 41.688 286.493 41.325 285.593 41.325 C 284.743 41.325 283.418 41.675 281.618 42.375 L 281.468 42.375 C 281.318 42.375 281.205 42.25 281.13 42 C 281.055 41.75 281.093 41.6 281.243 41.55 L 290.468 37.125 L 290.918 37.05 C 291.418 37.05 291.93 37.638 292.455 38.813 C 292.98 39.988 293.243 41.525 293.243 43.425 L 293.243 60.6 C 293.243 62.05 293.43 63.138 293.805 63.863 C 294.18 64.588 294.868 65.088 295.868 65.363 C 296.868 65.638 298.368 65.775 300.368 65.775 C 300.518 65.775 300.593 65.925 300.593 66.225 C 300.593 66.525 300.518 66.675 300.368 66.675 C 298.718 66.675 297.393 66.65 296.393 66.6 L 290.693 66.525 L 286.493 66.6 C 285.793 66.65 284.843 66.675 283.643 66.675 Z" style="fill: rgb(51, 51, 51); text-wrap-mode: nowrap;"/><defs><bx:export><bx:file format="svg"/></bx:export></defs><text style="white-space: pre; fill: rgb(51, 51, 51); font-family: Arial, sans-serif; font-size: 28px;" x="231.694" y="122.273"> </text></svg>